Coordinates
version=1
nRows=8
nColumns=40
inDegrees=yes

Units are S.I. units (second, meters, Newtons, ...)
Angles are in degrees.

endheader
time	pelvis_tilt	pelvis_list	pelvis_rotation	pelvis_tx	pelvis_ty	pelvis_tz	hip_flexion_r	hip_adduction_r	hip_rotation_r	knee_angle_r	knee_angle_r_beta	ankle_angle_r	subtalar_angle_r	mtp_angle_r	hip_flexion_l	hip_adduction_l	hip_rotation_l	knee_angle_l	knee_angle_l_beta	ankle_angle_l	subtalar_angle_l	mtp_angle_l	lumbar_extension	lumbar_bending	lumbar_rotation	arm_flex_r	arm_add_r	arm_rot_r	elbow_flex_r	pro_sup_r	wrist_flex_r	wrist_dev_r	arm_flex_l	arm_add_l	arm_rot_l	elbow_flex_l	pro_sup_l	wrist_flex_l	wrist_dev_l
     17.94314286	     -6.56651454	     -6.84878781	      3.83337799	      0.81467750	      0.91878432	      0.50245068	      1.32154128	      6.75459392	    -17.20209638	      9.29178447	      9.29178447	     16.15374602	      6.71453234	     -2.36610058	     32.09384168	     -8.50563046	     -0.53796976	     20.31542247	     20.31542247	      3.15464173	     -9.14532262	      4.13239574	     -8.29593141	      7.99252625	      3.35142619	     41.01584212	    -14.90702825	     -6.65307390	     85.71103401	     44.85687121	      0.00000000	      0.00000000	    -11.08424600	     -7.31985660	      3.39298847	     31.65332508	     45.09226151	      0.00000000	      0.00000000
     17.95628571	     -6.53870562	     -6.86795044	      3.66332877	      0.81570718	      0.91792850	      0.50110331	      1.00916228	      6.60717143	    -16.98996172	      9.81653264	      9.81653264	     16.54678013	      6.64554370	     -2.50317805	     31.84166525	     -8.53634948	     -0.59756165	     20.94462716	     20.94462716	      2.81547162	     -9.37459513	      3.94502148	     -8.19398486	      7.91595688	      3.35603761	     40.16067724	    -14.94091824	     -6.72188914	     85.15266645	     44.87939841	      0.00000000	      0.00000000	    -10.94598990	     -7.31843700	      3.36517693	     31.59153778	     45.10491484	      0.00000000	      0.00000000
     17.96942857	     -6.45351657	     -6.83441617	      3.52463169	      0.81673929	      0.91738871	      0.49954928	      0.61648649	      6.40098239	    -16.78093848	     10.29850971	     10.29850971	     16.90838275	      6.54848758	     -2.62393613	     31.53392343	     -8.48621057	     -0.57328682	     21.59199319	     21.59199319	      2.66837607	     -9.69455758	      3.77573257	     -8.18653624	      7.80170094	      3.24463239	     39.11345426	    -14.78724135	     -6.75975074	     84.60261624	     44.89676349	      0.00000000	      0.00000000	    -10.77047650	     -7.30773473	      3.35502035	     31.52241839	     45.11233108	      0.00000000	      0.00000000
     17.98257143	     -6.48817609	     -6.74705092	      3.36302294	      0.81750083	      0.91679987	      0.49775569	      0.63286134	      6.02799449	    -16.54770252	     11.29903812	     11.29903812	     17.33620933	      6.20284677	     -2.73764823	     31.46282428	     -8.32651815	     -0.39736722	     22.40364793	     22.40364793	      2.59191179	    -10.39382605	      3.44617991	     -8.06276722	      7.65079490	      3.29577025	     38.08613460	    -14.78485082	     -7.17803593	     83.46369595	     44.94889835	      0.00000000	      0.00000000	    -10.30010683	     -7.29409522	      3.32653265	     31.25370431	     45.13131005	      0.00000000	      0.00000000
     17.99571429	     -6.45633961	     -6.59970717	      3.23696347	      0.81827501	      0.91662321	      0.49574826	      0.53776877	      5.59553279	    -16.32555787	     12.20715126	     12.20715126	     17.65346159	      5.88666794	     -2.77829422	     31.27480312	     -8.06580551	     -0.14340920	     23.14513983	     23.14513983	      2.69517271	    -11.20383610	      3.26231748	     -8.04561136	      7.46511586	      3.26190369	     36.90855022	    -14.64603926	     -7.61739342	     82.21115415	     45.00467753	      0.00000000	      0.00000000	     -9.70509610	     -7.25297929	      3.30113238	     30.88708928	     45.15273498	      0.00000000	      0.00000000
     18.00885714	     -6.42311033	     -6.41453833	      3.09930594	      0.81902049	      0.91669422	      0.49354779	      0.45898718	      5.09813926	    -16.10987445	     13.14764988	     13.14764988	     17.94061823	      5.61063090	     -2.77824106	     31.06034574	     -7.73132028	      0.17273713	     23.86064470	     23.86064470	      2.97252859	    -12.14035734	      3.34049032	     -8.03620447	      7.24164794	      3.22723255	     35.64863899	    -14.47327240	     -8.19484836	     80.66404283	     45.07564751	      0.00000000	      0.00000000	     -8.96070397	     -7.23505951	      3.24089826	     30.32634441	     45.18518504	      0.00000000	      0.00000000
     18.02200000	     -6.35960020	     -6.23707943	      2.96367960	      0.81979416	      0.91695206	      0.49117642	      0.36148740	      4.58634166	    -15.93200731	     14.10085000	     14.10085000	     18.13315307	      5.41953009	     -2.87910866	     30.83625094	     -7.39906817	      0.45712605	     24.63486556	     24.63486556	      3.45472989	    -12.99453695	      3.51579166	     -8.08827913	      7.06084971	      3.26640395	     34.26135494	    -14.48334558	     -8.60510983	     79.12488259	     45.13811992	      0.00000000	      0.00000000	     -8.16826694	     -7.21876499	      3.16010256	     30.07068977	     45.21796424	      0.00000000	      0.00000000
     18.03514286	     -6.17837477	     -6.09938164	      2.83529586	      0.82084157	      0.91757928	      0.48873511	     -0.02983054	      4.16365876	    -15.79475059	     14.73594473	     14.73594473	     18.13227646	      5.32893324	     -2.95597933	     30.40528497	     -7.14519798	      0.59514451	     25.30371167	     25.30371167	      4.03626309	    -13.59058530	      3.45042690	     -8.27034317	      6.92552633	      3.05484977	     32.65890633	    -14.27415925	     -8.64567468	     78.10150566	     45.16730813	      0.00000000	      0.00000000	     -7.59252967	     -7.29875117	      3.11224353	     30.09364878	     45.23663299	      0.00000000	      0.00000000
